<svg xmlns="http://www.w3.org/2000/svg" viewBox="0 0 512 512" width="512" height="512">
  <!-- iOS Settings icon: two gears on brushed silver -->
  <defs>
    <radialGradient id="bg" gradientUnits="userSpaceOnUse" cx="210" cy="165" r="400">
      <stop offset="0%" stop-color="#f6f7f8"/>
      <stop offset="100%" stop-color="#b7babf"/>
    </radialGradient>
    <linearGradient id="gear" x1="0" y1="0" x2="0" y2="1">
      <stop offset="0%" stop-color="#b1b4b9"/>
      <stop offset="100%" stop-color="#83868c"/>
    </linearGradient>
  </defs>
  <rect x="16" y="16" width="480" height="480" rx="112" fill="url(#bg)"/>
  <g fill="url(#gear)"><path d="M177.0 84.0 L199.0 84.0 L203.0 102.0 L173.0 102.0 Z"/><path d="M245.3 103.2 L260.8 118.7 L250.9 134.3 L229.7 113.1 Z"/><path d="M280.0 165.0 L280.0 187.0 L262.0 191.0 L262.0 161.0 Z"/><path d="M260.8 233.3 L245.3 248.8 L229.7 238.9 L250.9 217.7 Z"/><path d="M199.0 268.0 L177.0 268.0 L173.0 250.0 L203.0 250.0 Z"/><path d="M130.7 248.8 L115.2 233.3 L125.1 217.7 L146.3 238.9 Z"/><path d="M96.0 187.0 L96.0 165.0 L114.0 161.0 L114.0 191.0 Z"/><path d="M115.2 118.7 L130.7 103.2 L146.3 113.1 L125.1 134.3 Z"/><circle cx="188" cy="176" r="76"/></g>
  <circle cx="188" cy="176" r="33" fill="url(#bg)"/>
  <g fill="url(#gear)"><path d="M264.0 136.0 L296.0 136.0 L302.0 168.0 L258.0 168.0 Z"/><path d="M365.4 161.3 L390.0 181.8 L374.0 210.2 L340.3 181.9 Z"/><path d="M426.9 245.8 L432.5 277.4 L402.0 288.8 L394.4 245.5 Z"/><path d="M419.6 350.1 L403.6 377.9 L372.9 367.1 L394.9 328.9 Z"/><path d="M347.0 425.4 L317.0 436.3 L300.4 408.3 L341.7 393.2 Z"/><path d="M243.0 436.3 L213.0 425.4 L218.3 393.2 L259.6 408.3 Z"/><path d="M156.4 377.9 L140.4 350.1 L165.1 328.9 L187.1 367.1 Z"/><path d="M127.5 277.4 L133.1 245.8 L165.6 245.5 L158.0 288.8 Z"/><path d="M170.0 181.8 L194.6 161.3 L219.7 181.9 L186.0 210.2 Z"/><circle cx="280" cy="288" r="123"/></g>
  <circle cx="280" cy="288" r="55" fill="url(#bg)"/>
</svg>
