<svg xmlns="http://www.w3.org/2000/svg" viewBox="0 0 512 512" width="512" height="512">
  <!-- iOS-style Settings icon: grey cog on a silver field -->
  <defs>
    <radialGradient id="sg" cx="50%" cy="35%" r="80%">
      <stop offset="0%" stop-color="#f4f4f4"/>
      <stop offset="100%" stop-color="#c9ccd1"/>
    </radialGradient>
  </defs>
  <rect x="16" y="16" width="480" height="480" rx="112" fill="url(#sg)"/>
  <g fill="#6e7176">
    <rect x="232" y="58" width="48" height="86" rx="10" transform="rotate(0 256 256)"/>
    <rect x="232" y="58" width="48" height="86" rx="10" transform="rotate(40 256 256)"/>
    <rect x="232" y="58" width="48" height="86" rx="10" transform="rotate(80 256 256)"/>
    <rect x="232" y="58" width="48" height="86" rx="10" transform="rotate(120 256 256)"/>
    <rect x="232" y="58" width="48" height="86" rx="10" transform="rotate(160 256 256)"/>
    <rect x="232" y="58" width="48" height="86" rx="10" transform="rotate(200 256 256)"/>
    <rect x="232" y="58" width="48" height="86" rx="10" transform="rotate(240 256 256)"/>
    <rect x="232" y="58" width="48" height="86" rx="10" transform="rotate(280 256 256)"/>
    <rect x="232" y="58" width="48" height="86" rx="10" transform="rotate(320 256 256)"/>
    <circle cx="256" cy="256" r="150"/>
  </g>
  <circle cx="256" cy="256" r="66" fill="url(#sg)"/>
</svg>
