<svg xmlns="http://www.w3.org/2000/svg" viewBox="0 0 512 512" width="512" height="512">
  <!-- iOS Settings: large 3-spoke gear + smaller gear meshing in, brushed silver -->
  <defs>
    <radialGradient id="bg" gradientUnits="userSpaceOnUse" cx="215" cy="165" r="400">
      <stop offset="0%" stop-color="#f6f7f8"/><stop offset="100%" stop-color="#b4b7bc"/>
    </radialGradient>
    <linearGradient id="g" x1="0" y1="0" x2="0" y2="1">
      <stop offset="0%" stop-color="#bdc0c5"/><stop offset="100%" stop-color="#83868c"/>
    </linearGradient>
  </defs>
  <rect x="16" y="16" width="480" height="480" rx="112" fill="url(#bg)"/>
  <!-- small gear (behind) -->
  <g fill="url(#g)"><path d="M174.0 96.0 L186.0 96.0 L189.0 114.0 L171.0 114.0 Z"/><path d="M216.8 104.3 L227.2 110.3 L220.8 127.3 L205.2 118.3 Z"/><path d="M249.7 132.8 L255.7 143.2 L241.7 154.8 L232.7 139.2 Z"/><path d="M264.0 174.0 L264.0 186.0 L246.0 189.0 L246.0 171.0 Z"/><path d="M255.7 216.8 L249.7 227.2 L232.7 220.8 L241.7 205.2 Z"/><path d="M227.2 249.7 L216.8 255.7 L205.2 241.7 L220.8 232.7 Z"/><path d="M186.0 264.0 L174.0 264.0 L171.0 246.0 L189.0 246.0 Z"/><path d="M143.2 255.7 L132.8 249.7 L139.2 232.7 L154.8 241.7 Z"/><path d="M110.3 227.2 L104.3 216.8 L118.3 205.2 L127.3 220.8 Z"/><path d="M96.0 186.0 L96.0 174.0 L114.0 171.0 L114.0 189.0 Z"/><path d="M104.3 143.2 L110.3 132.8 L127.3 139.2 L118.3 154.8 Z"/><path d="M132.8 110.3 L143.2 104.3 L154.8 118.3 L139.2 127.3 Z"/><circle cx="180" cy="180" r="68"/></g>
  <circle cx="180" cy="180" r="22" fill="url(#bg)"/>
  <!-- big gear ring + teeth -->
  <g fill="url(#g)"><path d="M276.0 118.0 L288.0 118.0 L292.0 144.0 L272.0 144.0 Z"/><path d="M320.7 122.3 L332.3 125.4 L329.4 151.6 L310.1 146.4 Z"/><path d="M362.8 138.0 L373.2 144.0 L363.7 168.6 L346.3 158.6 Z"/><path d="M399.4 164.1 L407.9 172.6 L392.3 193.8 L378.2 179.7 Z"/><path d="M428.0 198.8 L434.0 209.2 L413.4 225.7 L403.4 208.3 Z"/><path d="M446.6 239.7 L449.7 251.3 L425.6 261.9 L420.4 242.6 Z"/><path d="M454.0 284.0 L454.0 296.0 L428.0 300.0 L428.0 280.0 Z"/><path d="M449.7 328.7 L446.6 340.3 L420.4 337.4 L425.6 318.1 Z"/><path d="M434.0 370.8 L428.0 381.2 L403.4 371.7 L413.4 354.3 Z"/><path d="M407.9 407.4 L399.4 415.9 L378.2 400.3 L392.3 386.2 Z"/><path d="M373.2 436.0 L362.8 442.0 L346.3 421.4 L363.7 411.4 Z"/><path d="M332.3 454.6 L320.7 457.7 L310.1 433.6 L329.4 428.4 Z"/><path d="M288.0 462.0 L276.0 462.0 L272.0 436.0 L292.0 436.0 Z"/><path d="M243.3 457.7 L231.7 454.6 L234.6 428.4 L253.9 433.6 Z"/><path d="M201.2 442.0 L190.8 436.0 L200.3 411.4 L217.7 421.4 Z"/><path d="M164.6 415.9 L156.1 407.4 L171.7 386.2 L185.8 400.3 Z"/><path d="M136.0 381.2 L130.0 370.8 L150.6 354.3 L160.6 371.7 Z"/><path d="M117.4 340.3 L114.3 328.7 L138.4 318.1 L143.6 337.4 Z"/><path d="M110.0 296.0 L110.0 284.0 L136.0 280.0 L136.0 300.0 Z"/><path d="M114.3 251.3 L117.4 239.7 L143.6 242.6 L138.4 261.9 Z"/><path d="M130.0 209.2 L136.0 198.8 L160.6 208.3 L150.6 225.7 Z"/><path d="M156.1 172.6 L164.6 164.1 L185.8 179.7 L171.7 193.8 Z"/><path d="M190.8 144.0 L201.2 138.0 L217.7 158.6 L200.3 168.6 Z"/><path d="M231.7 125.4 L243.3 122.3 L253.9 146.4 L234.6 151.6 Z"/><circle cx="282" cy="290" r="148"/></g>
  <!-- open the centre, then lay 3 spokes + hub over it -->
  <circle cx="282" cy="290" r="126" fill="url(#bg)"/>
  <g fill="url(#g)"><rect x="-18" y="-126" width="36" height="156" rx="18" transform="translate(282 290) rotate(0)"/><rect x="-18" y="-126" width="36" height="156" rx="18" transform="translate(282 290) rotate(120)"/><rect x="-18" y="-126" width="36" height="156" rx="18" transform="translate(282 290) rotate(240)"/><circle cx="282" cy="290" r="34"/></g>
  <circle cx="282" cy="290" r="13" fill="url(#bg)"/>
</svg>
