<svg xmlns="http://www.w3.org/2000/svg" viewBox="0 0 512 512" width="512" height="512">
  <!-- iOS Settings: large gear with 3-spoke hub, smaller gear meshing in -->
  <defs>
    <radialGradient id="bg" gradientUnits="userSpaceOnUse" cx="215" cy="170" r="400">
      <stop offset="0%" stop-color="#f6f7f8"/><stop offset="100%" stop-color="#b4b7bc"/>
    </radialGradient>
    <linearGradient id="g" x1="0" y1="0" x2="0" y2="1">
      <stop offset="0%" stop-color="#bdc0c5"/><stop offset="100%" stop-color="#86898f"/>
    </linearGradient>
  </defs>
  <rect x="16" y="16" width="480" height="480" rx="112" fill="url(#bg)"/>
  <!-- small gear (behind) -->
  <g fill="url(#g)"><path d="M175.0 98.0 L189.0 98.0 L192.0 116.0 L172.0 116.0 Z"/><path d="M221.5 107.6 L233.3 115.1 L226.1 131.9 L209.3 121.1 Z"/><path d="M255.5 140.7 L261.3 153.5 L246.2 163.7 L237.9 145.5 Z"/><path d="M266.1 187.0 L264.1 200.9 L245.9 201.3 L248.8 181.5 Z"/><path d="M250.1 231.7 L240.9 242.3 L225.3 232.8 L238.4 217.7 Z"/><path d="M212.4 260.6 L198.9 264.6 L191.0 248.1 L210.2 242.5 Z"/><path d="M165.1 264.6 L151.6 260.6 L153.8 242.5 L173.0 248.1 Z"/><path d="M123.1 242.3 L113.9 231.7 L125.6 217.7 L138.7 232.8 Z"/><path d="M99.9 200.9 L97.9 187.0 L115.2 181.5 L118.1 201.3 Z"/><path d="M102.7 153.5 L108.5 140.7 L126.1 145.5 L117.8 163.7 Z"/><path d="M130.7 115.1 L142.5 107.6 L154.7 121.1 L137.9 131.9 Z"/><circle cx="182" cy="182" r="68"/></g>
  <circle cx="182" cy="182" r="24" fill="url(#bg)"/>
  <!-- big gear (front) -->
  <g fill="url(#g)"><path d="M279.0 118.0 L293.0 118.0 L297.0 142.0 L275.0 142.0 Z"/><path d="M323.8 122.0 L337.3 125.7 L334.9 149.9 L313.7 144.2 Z"/><path d="M365.9 137.5 L378.1 144.5 L369.5 167.3 L350.5 156.3 Z"/><path d="M402.7 163.4 L412.6 173.3 L398.4 193.1 L382.9 177.6 Z"/><path d="M431.5 197.9 L438.5 210.1 L419.7 225.5 L408.7 206.5 Z"/><path d="M450.3 238.7 L454.0 252.2 L431.8 262.3 L426.1 241.1 Z"/><path d="M458.0 283.0 L458.0 297.0 L434.0 301.0 L434.0 279.0 Z"/><path d="M454.0 327.8 L450.3 341.3 L426.1 338.9 L431.8 317.7 Z"/><path d="M438.5 369.9 L431.5 382.1 L408.7 373.5 L419.7 354.5 Z"/><path d="M412.6 406.7 L402.7 416.6 L382.9 402.4 L398.4 386.9 Z"/><path d="M378.1 435.5 L365.9 442.5 L350.5 423.7 L369.5 412.7 Z"/><path d="M337.3 454.3 L323.8 458.0 L313.7 435.8 L334.9 430.1 Z"/><path d="M293.0 462.0 L279.0 462.0 L275.0 438.0 L297.0 438.0 Z"/><path d="M248.2 458.0 L234.7 454.3 L237.1 430.1 L258.3 435.8 Z"/><path d="M206.1 442.5 L193.9 435.5 L202.5 412.7 L221.5 423.7 Z"/><path d="M169.3 416.6 L159.4 406.7 L173.6 386.9 L189.1 402.4 Z"/><path d="M140.5 382.1 L133.5 369.9 L152.3 354.5 L163.3 373.5 Z"/><path d="M121.7 341.3 L118.0 327.8 L140.2 317.7 L145.9 338.9 Z"/><path d="M114.0 297.0 L114.0 283.0 L138.0 279.0 L138.0 301.0 Z"/><path d="M118.0 252.2 L121.7 238.7 L145.9 241.1 L140.2 262.3 Z"/><path d="M133.5 210.1 L140.5 197.9 L163.3 206.5 L152.3 225.5 Z"/><path d="M159.4 173.3 L169.3 163.4 L189.1 177.6 L173.6 193.1 Z"/><path d="M193.9 144.5 L206.1 137.5 L221.5 156.3 L202.5 167.3 Z"/><path d="M234.7 125.7 L248.2 122.0 L258.3 144.2 L237.1 149.9 Z"/><circle cx="286" cy="290" r="150"/></g>
  <circle cx="286" cy="290" r="120" fill="url(#bg)"/>
  <circle cx="286" cy="290" r="120" fill="none"/>
  <!-- spokes: silver plate, carve 3 holes, solid hub -->
  <circle cx="286" cy="290" r="118" fill="url(#g)"/>
  <circle cx="286.0" cy="226.0" r="40" fill="url(#bg)"/><circle cx="230.6" cy="322.0" r="40" fill="url(#bg)"/><circle cx="341.4" cy="322.0" r="40" fill="url(#bg)"/>
  <circle cx="286" cy="290" r="26" fill="url(#g)"/>
</svg>
